inDegrees=no
num_controls=7
num_derivatives=13
num_iterations=104
num_multipliers=7
num_parameters=0
num_slacks=7
num_states=26
objective=0.443987
objective_accelerations=0.059320
objective_balance=0.003822
objective_effort=0.024231
objective_height=0.351081
objective_ligament=0.005533
solver_duration=1551.586475
status=Solve_Succeeded
success=true
DataType=double
version=3
OpenSimVersion=4.5
endheader
time	/jointset/ground_pelvis/pelvis_tilt/value	/jointset/ground_pelvis/pelvis_tx/value	/jointset/ground_pelvis/pelvis_ty/value	/jointset/hip_l/hip_flexion_l/value	/jointset/hip_l/hip_adduction_l/value	/jointset/hip_l/hip_rotation_l/value	/jointset/back/lumbar_extension/value	/jointset/patellofemoral_l/patellar_flexion_l/value	/jointset/knee_l/knee_flexion_l/value	/jointset/knee_l/knee_adduction_l/value	/jointset/knee_l/knee_rotation_l/value	/jointset/ankle_l/ankle_angle_l/value	/jointset/subtalar_l/subtalar_angle_l/value	/jointset/ground_pelvis/pelvis_tilt/speed	/jointset/ground_pelvis/pelvis_tx/speed	/jointset/ground_pelvis/pelvis_ty/speed	/jointset/hip_l/hip_flexion_l/speed	/jointset/hip_l/hip_adduction_l/speed	/jointset/hip_l/hip_rotation_l/speed	/jointset/back/lumbar_extension/speed	/jointset/patellofemoral_l/patellar_flexion_l/speed	/jointset/knee_l/knee_flexion_l/speed	/jointset/knee_l/knee_adduction_l/speed	/jointset/knee_l/knee_rotation_l/speed	/jointset/ankle_l/ankle_angle_l/speed	/jointset/subtalar_l/subtalar_angle_l/speed	/forceset/tau_hip_flexion_l	/forceset/tau_hip_adduction_l	/forceset/tau_hip_rotation_l	/forceset/tau_knee_flexion_l	/forceset/tau_ankle_angle_l	/forceset/tau_subtalar_angle_l	/forceset/tau_lumbar_extension	lambda_cid13_p0	lambda_cid13_p1	lambda_cid13_p2	lambda_cid13_p3	lambda_cid13_p4	lambda_cid13_p5	lambda_cid14_p0	/jointset/ground_pelvis/pelvis_tilt/accel	/jointset/ground_pelvis/pelvis_tx/accel	/jointset/ground_pelvis/pelvis_ty/accel	/jointset/hip_l/hip_flexion_l/accel	/jointset/hip_l/hip_adduction_l/accel	/jointset/hip_l/hip_rotation_l/accel	/jointset/back/lumbar_extension/accel	/jointset/patellofemoral_l/patellar_flexion_l/accel	/jointset/knee_l/knee_flexion_l/accel	/jointset/knee_l/knee_adduction_l/accel	/jointset/knee_l/knee_rotation_l/accel	/jointset/ankle_l/ankle_angle_l/accel	/jointset/subtalar_l/subtalar_angle_l/accel	gamma_cid13_p0	gamma_cid13_p1	gamma_cid13_p2	gamma_cid13_p3	gamma_cid13_p4	gamma_cid13_p5	gamma_cid14_p0
0.5	-0.3651987776990159	-0.05030989047573652	0.7527096465001452	1.149036022774833	-0.4367535698893771	-0.2195005860481349	-0.2551260694254565	0.8147124015557659	0.8147124015557604	-0.1265221978920523	-0.159910870771766	0.0912520539105664	-0.04148155075858856	-0.8308673060545045	-0.2386021682736831	-0.5589089163558056	2.604094838808893	-0.2016509530310705	0.7586730097649594	-0.1096733898987725	2.007755221344416	2.007755221344639	0.1332705517008368	-0.08426407981765764	0.4097936399896638	-0.02357331382077705	-0.1798889171706861	0.01706411008295969	-0.01112656280226584	-0.2165463245558613	0.07732711357465899	0.04675087024627753	0.1743312401923269	-7.954405703769915	-21.90700213307382	6.57864844287562	-8.027965386877911	-521.4107983139985	-62.63470182187537	-24.81551084222187	0.8811654422803178	0.6677502907063562	-0.4718365919047479	-1.454564555418267	0.7680784930281672	-0.2122326513383954	1.097014049987917	-1.281905047197745	-1.281905047197847	0.09134617783884015	0.1855793788243571	-0.5030589996442183	0.5690256942061137	-5.750330996277255e-07	-4.454220001521926e-07	2.839287092549465e-06	1.525849493288233e-07	-6.470138776191926e-07	2.047892621344281e-07	-4.764831154274837e-07
0.51	-0.3734613280876963	-0.05266224121049518	0.7470982014986867	1.174999148371051	-0.4387328912931598	-0.2119232949857729	-0.2561692874793481	0.8347227755340405	0.8347227755341039	-0.1251893553384238	-0.1607438160946681	0.09532366309387448	-0.04169079313130638	-0.8215197474008163	-0.2318480690065849	-0.5632595808118931	2.588173051183395	-0.1941984410018555	0.7566830373925871	-0.09901811816722034	1.99405193155449	1.99405193155453	0.1332923633459799	-0.08231886395883628	0.4044575113352811	-0.01828615488475827	-0.1857793088026727	0.01768496258940918	-0.01118055071103826	-0.2191640504903421	0.07705389838242355	0.04715696446502095	0.1787957350991462	-8.259005068589863	-22.00617856434425	6.567208376298431	-7.962572563959971	-525.2423872289257	-62.24962762339469	-23.88779851868664	0.97993245733406	0.6822583229785026	-0.3987328094259265	-1.714654837752612	0.7357590834463857	-0.2081131051482266	1.042599141595033	-1.454592308308205	-1.454592308335648	-0.04320330924555633	0.2004928496331057	-0.5594844476600013	0.5066437544560386	-5.633743131521207e-07	-3.602063433948339e-07	2.880380611972512e-06	1.732048631906886e-07	-6.237683718174049e-07	2.791014812417684e-07	-4.706846637204884e-07
0.52	-0.3816267266137562	-0.05494644723692947	0.7414468395652744	1.200792322296687	-0.4406373032715346	-0.2043690503621267	-0.2571073897345531	0.8545881063417313	0.8545881063418628	-0.1238564550617618	-0.1615570092269402	0.09933979206077378	-0.04184754736243276	-0.8114369335302863	-0.2249732266088072	-0.5668923027465912	2.570104504692418	-0.1866690679495118	0.7540637220217512	-0.08865023016142112	1.978746587227833	1.978746587227689	0.1332820963072187	-0.08031364169113119	0.3986975967079101	-0.01307568550248851	-0.1916697004346549	0.01830581509585943	-0.01123453861978737	-0.221781776424825	0.07678068319018737	0.04756305868376475	0.1832602300059699	-8.567340463656079	-22.10551397071002	6.556724248398059	-7.929178227938666	-529.1593387952382	-61.92580987420374	-22.96153080359665	1.028216485648716	0.6918989168422491	-0.3282480876268318	-1.883916328513764	0.7834506976538873	-0.3381012510311399	1.039537304837324	-1.60231595454415	-1.60231595454414	0.08493044105800725	0.1975806606011059	-0.5878161942418711	0.5536877834563101	-5.489972912984619e-07	-2.63289560523385e-07	2.917204693659016e-06	1.985955858836163e-07	-6.020298729192739e-07	3.535874671338532e-07	-4.614610801522527e-07
0.53	-0.3896878355593191	-0.0571613859950378	0.7357627641749008	1.22639442988406	-0.4424660169738718	-0.1968438007171892	-0.257943292502068	0.874292525441851	0.8742925254419092	-0.1225238865677108	-0.1623496474994255	0.1032962837287499	-0.04195252315480424	-0.800669717580766	-0.2180019420979193	-0.5697985160408058	2.549970251315109	-0.1790651541647509	0.7508827213337336	-0.07859610500220116	1.961879073810505	1.961879073810398	0.1332252868236874	-0.07820957776459618	0.3925351115247486	-0.007934872258289599	-0.1973980352085436	0.01883205115385248	-0.0112351099063775	-0.2245119017806836	0.07665822759455691	0.04769556713844046	0.1875521350201932	-8.832711472016859	-22.08717243672907	6.520188269569882	-7.822061552791389	-533.041287501641	-61.40831936205846	-22.03847774217145	1.118171520827297	0.7016730418819456	-0.2532871795553033	-2.130279389392155	0.749792289632548	-0.3240103805486866	0.9784828723749504	-1.767601559873477	-1.767601559868076	-0.05187411687370429	0.2180797670874127	-0.6402885652110645	0.4916595624987965	-5.331205706234228e-07	-1.725921090914948e-07	2.941715448439742e-06	2.231390222373334e-07	-5.805278816776171e-07	4.257934875387402e-07	-4.511026888366528e-07
0.54	-0.3976378328711426	-0.05930622594330325	0.7300533308057379	1.251784775028249	-0.4442185054242124	-0.1893535432597047	-0.2586806274678088	0.8938205429028865	0.8938205429028748	-0.1211920636632549	-0.1631209930309687	0.1071891857679226	-0.04200661452121434	-0.7892146067822997	-0.2109534646402335	-0.5719638985044867	2.527752016055695	-0.171424017550175	0.7470652845312502	-0.06893666980655597	1.943466259411322	1.943466259411251	0.1331329783875554	-0.07605509350175185	0.3859796709472756	-0.002898800310206283	-0.2031263699824414	0.01935828721184294	-0.01123568119290986	-0.2272420271365462	0.07653577199892576	0.04782807559311198	0.1918440400344084	-9.101657954129454	-22.06864848200052	6.484131797938748	-7.747428887784206	-537.0079847380601	-60.95015541563561	-21.12296290954736	1.165795455437916	0.707337506201862	-0.1800819215200777	-2.300712704934654	0.790895263616891	-0.4653884739243245	0.9605993121223723	-1.911376150915185	-1.911376150915189	0.07783065053788465	0.2076647278629714	-0.6664072731041837	0.5327395242331927	-5.155846086991968e-07	-8.877562010337179e-08	2.952602947920457e-06	2.467450354072431e-07	-5.592875584814209e-07	4.954769929365145e-07	-4.394887655452454e-07
0.55	-0.4054700566205993	-0.06138028756539963	0.7243259540309392	1.27694289283014	-0.4458943658704953	-0.1819043152375487	-0.2593233598651496	0.9131568682579398	0.9131568682579364	-0.1198614005615656	-0.1638703542460083	0.1110146426669862	-0.04201080531294452	-0.7771223627336578	-0.2038541872771341	-0.5733856529882667	2.503538460625883	-0.1637462796407227	0.7426807454961517	-0.05969132466477116	1.923553503935469	1.923553503935439	0.1329893124022444	-0.07381226191291847	0.3790514722344939	0.002040224505643419	-0.2087068612416078	0.01946198271425062	-0.01116500902865872	-0.229978557266598	0.07623783581986868	0.04802768371999533	0.1959688724854008	-9.422088627767989	-22.06972392971263	6.450595625426446	-7.55956180712284	-540.8761340991812	-60.62108174809929	-20.21891871923571	1.247034071465273	0.7119756508639932	-0.1044612321451324	-2.531723001506986	0.75611003962769	-0.4402861038041424	0.8942748647417568	-2.06793476470952	-2.067934764703193	-0.0619388429945976	0.2339249930977377	-0.7150314276548281	0.4710825267830908	-4.923626785691792e-07	-6.722493515565457e-09	2.936025491029899e-06	2.665405159457144e-07	-5.328266595259959e-07	5.581980476626737e-07	-4.237357142826607e-07
0.5600000000000001	-0.4131781388911925	-0.06338320585396499	0.7185881119072351	1.301848865869831	-0.44749346954068	-0.1745019925028443	-0.259876084261166	0.9322867241544756	0.9322867241544838	-0.1185324688437135	-0.1645970206214217	0.114769016527464	-0.04196628614321178	-0.7643863110094967	-0.1967247979340323	-0.5740569682855796	2.47732306361597	-0.1560726623305385	0.7376842270409911	-0.050935069541577	1.90217236770805	1.902172367708062	0.1327867016197725	-0.07151612557591587	0.3717630632301256	0.006843191982382268	-0.2142873525007869	0.01956567821665647	-0.01109433686436367	-0.2327150873966525	0.07593989964081189	0.04822729184687609	0.2000937049363809	-9.745322803407431	-22.07097438861879	6.417849837491432	-7.408511537350257	-544.8182956999593	-60.34833756331592	-19.3284984357466	1.294556990541747	0.7133599022023511	-0.02999408422670321	-2.701081020954973	0.7900711437632513	-0.5877843579367429	0.8627813084042459	-2.205052301228408	-2.205052301228437	0.06604169110571578	0.2183256774968159	-0.7384493314214878	0.5055280564110241	-4.623175865922118e-07	7.321459819186099e-08	2.886490086493816e-06	2.8176335732646e-07	-5.001010696594963e-07	6.125641615828951e-07	-4.030157094546633e-07
0.5700000000000001	-0.4207558787130936	-0.06531476749595447	0.7128473063661361	1.326483068122869	-0.4490157661296206	-0.1671524949404193	-0.2603437039008268	0.9511955760853871	0.9511955760853475	-0.1172057434084483	-0.1653002970960251	0.1184487914315651	-0.04187427636233747	-0.7510615424535412	-0.1895902347371609	-0.5739772066305087	2.449195689059414	-0.148390850328195	0.7321180715288012	-0.04268804416837758	1.879362056849753	1.879362056849722	0.1325438346235658	-0.06913384169423066	0.364136185794787	0.01153346955381301	-0.2196568293977782	0.01964243610570674	-0.01095542001295124	-0.2355140051436749	0.07572678241322363	0.04814791928346792	0.2040047075678484	-10.04140277542237	-21.94743734221602	6.355634881266614	-7.161480865255898	-548.6379514259439	-59.87106028738307	-18.45338227315105	1.366386516582328	0.7131569622938457	0.0459049680091202	-2.91689794061337	0.7562277861505226	-0.5559369507167345	0.7907852851195805	-2.354336462728181	-2.354336462734834	-0.07154557517877215	0.2495582027191323	-0.7831268447799551	0.4466298081685967	-4.299311801459773e-07	1.440278586741728e-07	2.815908582147687e-06	2.924802250819397e-07	-4.650468644765593e-07	6.582729042464356e-07	-3.8060701396439e-07
0.58	-0.4281973809037434	-0.06717505301920236	0.7071110871771149	1.350826330176818	-0.4504614462870016	-0.1598616400936887	-0.2607318288600878	0.9698692617107944	0.9698692617107101	-0.115881865579183	-0.165979475039972	0.1220506335822746	-0.04173619336561696	-0.73713878475919	-0.1824695741857158	-0.5731396978700383	2.419135023798561	-0.1407493760186261	0.7259556839023461	-0.03503613346150639	1.855139106607541	1.855139106607465	0.1322171804195618	-0.06669641944395453	0.3561765125518523	0.01605783515162333	-0.2250263062947864	0.01971919399475292	-0.01081650316147103	-0.2383129228907008	0.07551366518563536	0.048068546720054	0.2079157101992998	-10.34006182664827	-21.82327954358899	6.293129552107354	-6.950591640182982	-552.5298169288212	-59.44494813131958	-17.5948998147884	1.414154818220842	0.7105793731170854	0.1215553368531946	-3.087739161814294	0.7820036052083251	-0.7070307807897744	0.7437583751385997	-2.48758017801158	-2.487580178011614	0.04928424954625821	0.2293533512150003	-0.8050084929407031	0.4723456616869436	-3.944956199723256e-07	2.029589203516838e-07	2.71791820363034e-06	2.973288481161429e-07	-4.269600439977976e-07	6.927069308547639e-07	-3.559990934255716e-07
